<?xml version="1.0" encoding="utf-8"?>
<!-- Generator: Adobe Illustrator 20.0.0, SVG Export Plug-In . SVG Version: 6.00 Build 0)  -->
<svg version="1.1" id="Layer_1" xmlns="http://www.w3.org/2000/svg" xmlns:xlink="http://www.w3.org/1999/xlink" x="0px" y="0px"
	 viewBox="0 0 263.7 173.8" style="enable-background:new 0 0 263.7 173.8;" xml:space="preserve">
<style type="text/css">
	.st0{fill:#262261;}
	.st1{fill:#32327B;}
	.st2{fill:#26A9E0;}
	.st3{fill:#8BC53F;}
	.st4{fill:#F6921E;}
	.st5{fill:#EB008B;}
</style>
<path class="st0" d="M92.3,81.8h4.9c3.1,0,6.9-1.5,6.9-6.1c0-4.3-4.5-5.9-7.6-5.9h-4.2V81.8z M87.4,65.4h9c7.1,0,12.9,2.5,12.9,10.3
	c0,7.7-6,10.4-12.2,10.4h-4.8v13.8h-4.9V65.4z"/>
<path class="st0" d="M124.7,80.2h4.2c4.7,0,7.4-2.1,7.4-5.4c0-3.1-2.4-5.1-6.9-5.1h-4.7L124.7,80.2L124.7,80.2z M119.7,65.4h8.4
	c6.8,0,13.4,1.1,13.4,9.3c0,4.2-3.1,7.2-7.1,7.9v0.1c1.5,0.6,2.3,1.3,3.4,3.5l6.5,13.7h-5.6l-5.3-11.9c-1.5-3.4-3.2-3.4-5.8-3.4h-3
	v15.3h-4.9V65.4z"/>
<path class="st0" d="M168.5,70.1l-6.9,17.1h13.7L168.5,70.1z M166,65.4h5.2l14.6,34.5h-5.4l-3.5-8.7H160l-3.5,8.7h-5.2L166,65.4z"/>
<path class="st0" d="M211.4,70.6c-2.5-1-3.9-1.4-6.5-1.4c-2.8,0-6,1-6,4.6c0,6.6,14.8,5.1,14.8,16.4c0,7.4-5.7,10.3-12.6,10.3
	c-2.4,0-4.8-0.7-7.1-1.4l0.5-4.6c1.7,0.7,4.6,1.7,7.2,1.7c2.8,0,6.8-1.6,6.8-5.6c0-7.7-14.8-5.6-14.8-16.3c0-6.1,4.8-9.4,11.1-9.4
	c2.3,0,5,0.4,7.4,1.2L211.4,70.6z"/>
<polygon class="st0" points="225.6,65.4 244.9,65.4 244.9,69.8 230.5,69.8 230.5,79.8 243.6,79.8 243.6,84.2 230.5,84.2 230.5,95.5 
	244.9,95.5 244.9,99.9 225.6,99.9 "/>
<path class="st1" d="M55.5,97.5c2.6-38.9,51.8-69.3,110-67.9c11,0.3,21.4,1.7,31.2,4c-15.3-16.2-38.1-26.7-64.1-27.4
	C83.2,5,40.8,39.6,37.9,83.6c-2.9,43.2,33.5,79.4,81.7,81.7C80.3,154.3,53.5,127.8,55.5,97.5z"/>
<path class="st2" d="M64.6,109.3c-15.6-37.8,17.6-75.6,74-84.5c10.6-1.7,21.3-2.2,31.8-1.7C148.2,10.3,121.5,4.3,96.3,8.2
	c-47.9,7.5-72.5,48.2-54.9,90.9c17.3,41.9,68.9,70.1,116.1,63.9C114.6,159.4,76.7,138.7,64.6,109.3z"/>
<path class="st3" d="M78.8,119c-32.4-33.4-18.1-75.5,31.8-94c9.4-3.5,19.4-5.9,29.7-7.3c-27.2-8.4-55.6-9.5-77.9-1.2
	c-42.4,15.7-47.1,59-10.6,96.8c35.9,37.1,98.4,55,140.8,40.7C149.9,158.2,104,145,78.8,119z"/>
<path class="st4" d="M96.9,125.8c-46.5-26.3-52.3-69.2-13-95.7c7.4-5,15.9-9.1,25.1-12.2C79,14.7,51.3,18.7,33.8,30.6
	C0.4,53.1,15.9,95.5,68.4,125.2c51.6,29.2,119.7,35.3,153.7,14.1C183.1,150.7,133,146.3,96.9,125.8z"/>
<path class="st5" d="M117.4,129.1c-56.7-17-82.1-57-56.8-89.4c4.8-6.1,11-11.5,18.4-16.1C48.8,25.8,24.2,34.5,12.8,49
	c-21.5,27.5,12.9,65.3,76.9,84.5c63,18.9,131.1,12.6,153.8-13.7C211.5,137.7,161.5,142.4,117.4,129.1z"/>
</svg>
